<?xml version="1.0" encoding="UTF-8"?>
<!-- Created with Inkscape (http://www.inkscape.org/) -->
<svg width="196.82mm" height="191.37mm" version="1.1" viewBox="0 0 196.82 191.37" xmlns="http://www.w3.org/2000/svg">
 <g transform="translate(237.41 249.46)">
  <rect x="-1483.9" y="-1672.5" width="656.44" height="656.44" rx=".35948" style="paint-order:normal;stroke-linecap:round;stroke-linejoin:round;stroke-width:10;stroke:#000"/>
  <rect x="-1361.4" y="-1541.2" width="656.44" height="656.44" rx=".35948" style="fill:#313131;paint-order:normal;stroke-linecap:round;stroke-linejoin:round;stroke-width:10;stroke:#313131"/>
  <g transform="translate(-6.2877 -272.26)">
   <g transform="matrix(.26458 0 0 .26458 -132.72 118.49)" style="fill:#212426;stroke-linejoin:round;stroke-width:30.482;stroke:#373737">
    <path d="m264.05-253.76-466.51 125 92.648 475.18 466.51-125z" style="fill:#212426;stroke-linejoin:round;stroke-width:30.482;stroke:#373737"/>
    <path d="m264.05-253.76-154.24-92.647-466.51 125 154.23 92.647z" style="fill:#212426;stroke-linejoin:round;stroke-width:30.482;stroke:#373737"/>
    <path d="m-202.46-128.76-154.23-92.647 92.647 475.18 154.24 92.647z" style="fill:#212426;stroke-linejoin:round;stroke-width:30.482;stroke:#373737"/>
   </g>
   <path d="m-166.98 97.244 31.244-8.5585" style="fill:none;stroke-linecap:round;stroke-linejoin:bevel;stroke-width:7.265;stroke:#f2683d"/>
   <path d="m-124.37 85.776 22.531-6.1717" style="fill:none;stroke-linecap:round;stroke-linejoin:bevel;stroke-width:7.265;stroke:#f2683d"/>
   <path d="m-151.39 107.59 7.265-1.99" style="fill:none;stroke-linecap:round;stroke-linejoin:bevel;stroke-width:7.265;stroke:#24bccf"/>
   <path d="m-133.38 102.65 15.862-4.3449" style="fill:none;stroke-linecap:round;stroke-linejoin:bevel;stroke-width:7.265;stroke:#f2c302"/>
   <path d="m-148.74 121.15 42.316-11.591" style="fill:none;stroke-linecap:round;stroke-linejoin:bevel;stroke-width:7.265;stroke:#2cc26b"/>
   <path d="m-90.195 76.527 7.265-1.9901" style="fill:none;stroke-linecap:round;stroke-linejoin:bevel;stroke-width:7.265;stroke:#f2c302"/>
   <path d="m-106.8 95.373 26.088-7.146" style="fill:none;stroke-linecap:round;stroke-linejoin:bevel;stroke-width:7.265;stroke:#2cc26b"/>
   <path d="m-95.115 106.46 15.862-4.3449" style="fill:none;stroke-linecap:round;stroke-linejoin:bevel;stroke-width:7.265;stroke:#f2683d"/>
   <path d="m-158.95 138.39 47.874-13.114" style="fill:none;stroke-linecap:round;stroke-linejoin:bevel;stroke-width:7.265;stroke:#f2c302"/>
   <path d="m-99.577 122.13 15.862-4.3449" style="fill:none;stroke-linecap:round;stroke-linejoin:bevel;stroke-width:7.265;stroke:#f2683d"/>
   <path d="m-143.53 147.89 26.236-7.1868" style="fill:none;stroke-linecap:round;stroke-linejoin:bevel;stroke-width:7.265;stroke:#24bccf"/>
   <path d="m-106.15 137.66 17.119-4.6893" style="fill:none;stroke-linecap:round;stroke-linejoin:bevel;stroke-width:7.265;stroke:#24bccf"/>
   <path d="m-77.517 129.81 7.265-1.99" style="fill:none;stroke-linecap:round;stroke-linejoin:bevel;stroke-width:7.265;stroke:#2cc26b"/>
   <path d="m-130.14 157.32 17.119-4.6893" style="fill:none;stroke-linecap:round;stroke-linejoin:bevel;stroke-width:7.265;stroke:#f2683d"/>
   <path d="m-102.65 149.79 23.121-6.3335" style="fill:none;stroke-linecap:round;stroke-linejoin:bevel;stroke-width:7.265;stroke:#f2c302"/>
   <path d="m-138.6 173.15 17.119-4.6893" style="fill:none;stroke-linecap:round;stroke-linejoin:bevel;stroke-width:7.265;stroke:#24bccf"/>
   <path d="m-148.88 190.06 39.794-10.901" style="fill:none;stroke-linecap:round;stroke-linejoin:bevel;stroke-width:7.265;stroke:#2cc26b"/>
   <path d="m-98.899 176.37 7.7824-2.1318" style="fill:none;stroke-linecap:round;stroke-linejoin:bevel;stroke-width:7.265;stroke:#f2683d"/>
   <path d="m-80.712 171.39 22.964-6.2905" style="fill:none;stroke-linecap:round;stroke-linejoin:bevel;stroke-width:7.265;stroke:#f2683d"/>
   <path d="m-111.01 165.59 27.701-7.588" style="fill:none;stroke-linecap:round;stroke-linejoin:bevel;stroke-width:7.265;stroke:#f2c302"/>
  </g>
  <g transform="matrix(.26458 0 0 .26458 -327.59 149.65)" style="fill:#212426;stroke-linejoin:round;stroke-width:30.482;stroke:#373737">
   <path d="m264.05-253.76-466.51 125 92.648 475.18 466.51-125z" style="fill:#212426;stroke-linejoin:round;stroke-width:30.482;stroke:#373737"/>
   <path d="m264.05-253.76-154.24-92.647-466.51 125 154.23 92.647z" style="fill:#212426;stroke-linejoin:round;stroke-width:30.482;stroke:#373737"/>
   <path d="m-202.46-128.76-154.23-92.647 92.647 475.18 154.24 92.647z" style="fill:#212426;stroke-linejoin:round;stroke-width:30.482;stroke:#373737"/>
  </g>
  <path d="m-450.27 178.53 7.265-1.99" style="fill:none;stroke-linecap:round;stroke-linejoin:bevel;stroke-width:7.265;stroke:#24bccf"/>
  <path d="m-482.21 222.59 42.316-11.591" style="fill:none;stroke-linecap:round;stroke-linejoin:bevel;stroke-width:7.265;stroke:#2cc26b"/>
  <path d="m-341.84 151.99 20.084-5.5014" style="fill:none;stroke-linecap:round;stroke-linejoin:bevel;stroke-width:14;stroke:#24bccf"/>
  <path d="m-454.42 197.16 15.862-4.3449" style="fill:none;stroke-linecap:round;stroke-linejoin:bevel;stroke-width:7.2651;stroke:#f2683d"/>
  <path d="m-358.01 132.13 16.732-4.5832" style="fill:none;stroke-linecap:round;stroke-linejoin:bevel;stroke-width:14;stroke:#f2683d"/>
  <path d="m-319.2 121.5 49.428-13.539" style="fill:none;stroke-linecap:round;stroke-linejoin:bevel;stroke-width:14;stroke:#f2c302"/>
  <path d="m-337.27 175.46 72.103-19.751" style="fill:none;stroke-linecap:round;stroke-linejoin:bevel;stroke-width:14;stroke:#f2683d"/>
  <path d="m-301.85 141.04 31.199-8.5461" style="fill:none;stroke-linecap:round;stroke-linejoin:bevel;stroke-width:14;stroke:#2cc26b"/>
  <path d="m-344.29 202.5 17.416-4.7707" style="fill:none;stroke-linecap:round;stroke-linejoin:bevel;stroke-width:14;stroke:#24bccf"/>
  <path d="m-307.48 192.41 12.933-3.5425" style="fill:none;stroke-linecap:round;stroke-linejoin:bevel;stroke-width:14;stroke:#2cc26b"/>
  <path d="m-276.12 183.83 20.936-5.7347" style="fill:none;stroke-linecap:round;stroke-linejoin:bevel;stroke-width:14;stroke:#f2c302"/>
 </g>
</svg>
