<?xml version="1.0" encoding="UTF-8" standalone="no"?>
<!-- Created with Inkscape (http://www.inkscape.org/) -->

<svg
   width="1077.3792mm"
   height="191.37379mm"
   viewBox="0 0 1077.3791 191.37379"
   version="1.1"
   id="svg5"
   sodipodi:docname="logo-title.svg"
   inkscape:version="1.1 (c68e22c387, 2021-05-23)"
   xmlns:inkscape="http://www.inkscape.org/namespaces/inkscape"
   xmlns:sodipodi="http://sodipodi.sourceforge.net/DTD/sodipodi-0.dtd"
   xmlns="http://www.w3.org/2000/svg"
   xmlns:svg="http://www.w3.org/2000/svg">
  <sodipodi:namedview
     id="namedview7"
     pagecolor="#505050"
     bordercolor="#eeeeee"
     borderopacity="1"
     inkscape:pageshadow="0"
     inkscape:pageopacity="0"
     inkscape:pagecheckerboard="0"
     inkscape:document-units="mm"
     showgrid="false"
     inkscape:zoom="0.16"
     inkscape:cx="543.75"
     inkscape:cy="571.875"
     inkscape:window-width="2560"
     inkscape:window-height="1387"
     inkscape:window-x="559"
     inkscape:window-y="2152"
     inkscape:window-maximized="1"
     inkscape:current-layer="layer1"
     fit-margin-top="0"
     fit-margin-left="0"
     fit-margin-right="0"
     fit-margin-bottom="0" />
  <defs
     id="defs2">
    <rect
       x="1903.5532"
       y="1024.259"
       width="1908.3062"
       height="553.71771"
       id="rect123716" />
    <rect
       x="1851.2708"
       y="1076.5413"
       width="2721.0591"
       height="565.6001"
       id="rect107302" />
  </defs>
  <g
     inkscape:label="Lager 1"
     inkscape:groupmode="layer"
     id="layer1"
     transform="translate(0.99227894,-25.31684)">
    <g
       id="g179083">
      <g
         id="g101820"
         transform="translate(230.1315,2.515097)">
        <g
           inkscape:label="cube:x15.00:y15.00:z15.00:x0.00:y0.00:z0.00"
           transform="matrix(0.264583,0,0,0.264583,-132.71628,118.48867)"
           id="g101778"
           style="fill:#212426;fill-opacity:1;stroke:#373737;stroke-width:30.4819;stroke-linejoin:round;stroke-miterlimit:4;stroke-dasharray:none;stroke-opacity:1">
          <path
             inkscape:label="Face:0"
             style="fill:#212426;fill-opacity:1;stroke:#373737;stroke-width:30.4819;stroke-linejoin:round;stroke-miterlimit:4;stroke-dasharray:none;stroke-opacity:1"
             d="m 264.047,-253.764 -466.507,125 92.648,475.175 466.506,-125 z"
             id="path101772" />
          <path
             inkscape:label="Face:2"
             style="fill:#212426;fill-opacity:1;stroke:#373737;stroke-width:30.4819;stroke-linejoin:round;stroke-miterlimit:4;stroke-dasharray:none;stroke-opacity:1"
             d="m 264.047,-253.764 -154.235,-92.647 -466.506,125 154.234,92.647 z"
             id="path101774" />
          <path
             inkscape:label="Face:3"
             style="fill:#212426;fill-opacity:1;stroke:#373737;stroke-width:30.4819;stroke-linejoin:round;stroke-miterlimit:4;stroke-dasharray:none;stroke-opacity:1"
             d="m -202.46,-128.764 -154.234,-92.647 92.647,475.175 154.235,92.647 z"
             id="path101776" />
        </g>
        <path
           style="fill:none;stroke:#f2683d;stroke-width:7.265;stroke-linecap:round;stroke-linejoin:bevel;stroke-miterlimit:4;stroke-dasharray:none;stroke-opacity:1"
           d="m -166.97666,97.243631 31.24429,-8.558495"
           id="path101780" />
        <path
           style="fill:none;stroke:#f2683d;stroke-width:7.265;stroke-linecap:round;stroke-linejoin:bevel;stroke-miterlimit:4;stroke-dasharray:none;stroke-opacity:1"
           d="m -124.37317,85.776016 22.53082,-6.171684"
           id="path101782" />
        <path
           style="fill:none;stroke:#24bccf;stroke-width:7.265;stroke-linecap:round;stroke-linejoin:bevel;stroke-miterlimit:4;stroke-dasharray:none;stroke-opacity:1"
           d="m -151.38738,107.58517 7.26502,-1.99005"
           id="path101784" />
        <path
           style="fill:none;stroke:#f2c302;stroke-width:7.265;stroke-linecap:round;stroke-linejoin:bevel;stroke-miterlimit:4;stroke-dasharray:none;stroke-opacity:1"
           d="m -133.37807,102.65203 15.86165,-4.344859"
           id="path101786" />
        <path
           style="fill:none;stroke:#2cc26b;stroke-width:7.265;stroke-linecap:round;stroke-linejoin:bevel;stroke-miterlimit:4;stroke-dasharray:none;stroke-opacity:1"
           d="m -148.7427,121.14928 42.316,-11.59126"
           id="path101788" />
        <path
           style="fill:none;stroke:#f2c302;stroke-width:7.265;stroke-linecap:round;stroke-linejoin:bevel;stroke-miterlimit:4;stroke-dasharray:none;stroke-opacity:1"
           d="m -90.194734,76.526755 7.26504,-1.990054"
           id="path101790" />
        <path
           style="fill:none;stroke:#2cc26b;stroke-width:7.265;stroke-linecap:round;stroke-linejoin:bevel;stroke-miterlimit:4;stroke-dasharray:none;stroke-opacity:1"
           d="m -106.8046,95.372991 26.087702,-7.146008"
           id="path101792" />
        <path
           style="fill:none;stroke:#f2683d;stroke-width:7.265;stroke-linecap:round;stroke-linejoin:bevel;stroke-miterlimit:4;stroke-dasharray:none;stroke-opacity:1"
           d="m -95.115409,106.45963 15.86165,-4.34486"
           id="path101794" />
        <path
           style="fill:none;stroke:#f2c302;stroke-width:7.265;stroke-linecap:round;stroke-linejoin:bevel;stroke-miterlimit:4;stroke-dasharray:none;stroke-opacity:1"
           d="m -158.95397,138.39055 47.87364,-13.11362"
           id="path101796" />
        <path
           style="fill:none;stroke:#f2683d;stroke-width:7.265;stroke-linecap:round;stroke-linejoin:bevel;stroke-miterlimit:4;stroke-dasharray:none;stroke-opacity:1"
           d="m -99.576528,122.1258 15.861651,-4.34486"
           id="path101798" />
        <path
           style="fill:none;stroke:#24bccf;stroke-width:7.265;stroke-linecap:round;stroke-linejoin:bevel;stroke-miterlimit:4;stroke-dasharray:none;stroke-opacity:1"
           d="m -143.52804,147.89431 26.23643,-7.18675"
           id="path101800" />
        <path
           style="fill:none;stroke:#24bccf;stroke-width:7.265;stroke-linecap:round;stroke-linejoin:bevel;stroke-miterlimit:4;stroke-dasharray:none;stroke-opacity:1"
           d="m -106.15201,137.65619 17.119194,-4.68933"
           id="path101802" />
        <path
           style="fill:none;stroke:#2cc26b;stroke-width:7.265;stroke-linecap:round;stroke-linejoin:bevel;stroke-miterlimit:4;stroke-dasharray:none;stroke-opacity:1"
           d="m -77.517194,129.81246 7.26504,-1.99005"
           id="path101804" />
        <path
           style="fill:none;stroke:#f2683d;stroke-width:7.265;stroke-linecap:round;stroke-linejoin:bevel;stroke-miterlimit:4;stroke-dasharray:none;stroke-opacity:1"
           d="m -130.13921,157.32276 17.11919,-4.68933"
           id="path101806" />
        <path
           style="fill:none;stroke:#f2c302;stroke-width:7.265;stroke-linecap:round;stroke-linejoin:bevel;stroke-miterlimit:4;stroke-dasharray:none;stroke-opacity:1"
           d="m -102.64918,149.79262 23.121431,-6.33348"
           id="path101808" />
        <path
           style="fill:none;stroke:#24bccf;stroke-width:7.265;stroke-linecap:round;stroke-linejoin:bevel;stroke-miterlimit:4;stroke-dasharray:none;stroke-opacity:1"
           d="m -138.60424,173.1476 17.11919,-4.68933"
           id="path101810" />
        <path
           style="fill:none;stroke:#2cc26b;stroke-width:7.265;stroke-linecap:round;stroke-linejoin:bevel;stroke-miterlimit:4;stroke-dasharray:none;stroke-opacity:1"
           d="m -148.88002,190.05809 39.79434,-10.90056"
           id="path101812" />
        <path
           style="fill:none;stroke:#f2683d;stroke-width:7.265;stroke-linecap:round;stroke-linejoin:bevel;stroke-miterlimit:4;stroke-dasharray:none;stroke-opacity:1"
           d="m -98.898503,176.36703 7.782357,-2.13176"
           id="path101814" />
        <path
           style="fill:none;stroke:#f2683d;stroke-width:7.265;stroke-linecap:round;stroke-linejoin:bevel;stroke-miterlimit:4;stroke-dasharray:none;stroke-opacity:1"
           d="m -80.711858,171.3853 22.964405,-6.29046"
           id="path101816" />
        <path
           style="fill:none;stroke:#f2c302;stroke-width:7.265;stroke-linecap:round;stroke-linejoin:bevel;stroke-miterlimit:4;stroke-dasharray:none;stroke-opacity:1"
           d="m -111.0076,165.58826 27.701204,-7.58798"
           id="path101818" />
      </g>
      <g
         aria-label="CoderBlock"
         transform="matrix(0.81684094,0,0,0.81684094,-1340.3041,-787.71855)"
         id="text123714"
         style="font-weight:bold;font-size:192px;line-height:1.25;font-family:Consolas;-inkscape-font-specification:'Consolas, Bold';white-space:pre;shape-inside:url(#rect123716);fill:#ffffff;stroke:#ffffff;stroke-width:6.12114;stroke-linejoin:round">
        <path
           d="m 1997.6777,1186.0723 q -8.1562,3.2812 -15.8437,4.875 -7.5938,1.5937 -15.8438,1.5937 -13.2187,0 -23.4375,-3.8437 -10.125,-3.9375 -17.1562,-11.625 -6.9375,-7.6875 -10.5938,-19.0313 -3.5625,-11.4375 -3.5625,-26.5312 0,-15.4688 3.9375,-27.4688 3.9375,-12.0937 11.25,-20.3437 7.3125,-8.3438 17.7188,-12.6563 10.5,-4.4062 23.5312,-4.4062 4.2188,0 7.875,0.1875 3.75,0.1875 7.3125,0.75 3.5625,0.4687 7.2188,1.3125 3.6562,0.8437 7.5937,2.1562 v 22.875 q -7.9687,-3.75 -15.1875,-5.3437 -7.2187,-1.5938 -13.125,-1.5938 -8.7187,0 -14.9062,3.1875 -6.1875,3.0938 -10.2188,8.8125 -3.9375,5.625 -5.8125,13.5 -1.875,7.7813 -1.875,17.1563 0,9.9375 1.875,17.8125 1.9688,7.7812 6,13.2187 4.0313,5.4375 10.3125,8.3438 6.2813,2.8125 14.9063,2.8125 3.0937,0 6.6562,-0.5625 3.6563,-0.6563 7.3125,-1.5938 3.75,-1.0312 7.3125,-2.3437 3.6563,-1.4063 6.75,-2.8125 z"
           id="path179985" />
        <path
           d="m 2107.9277,1142.4785 q 0,11.25 -3.1875,20.625 -3.1875,9.2813 -9.1875,15.9375 -6,6.6563 -14.7187,10.3125 -8.7188,3.6563 -19.875,3.6563 -10.5938,0 -18.9375,-3.0938 -8.3438,-3.0937 -14.1563,-9.1875 -5.8125,-6.1875 -8.9062,-15.375 -3.0938,-9.2812 -3.0938,-21.5625 0,-11.3437 3.1875,-20.625 3.2813,-9.2812 9.2813,-15.8437 6.0937,-6.5625 14.8125,-10.125 8.7187,-3.6563 19.6875,-3.6563 10.6875,0 19.0312,3.1875 8.3438,3.0938 14.1563,9.2813 5.8125,6.1875 8.8125,15.375 3.0937,9.0937 3.0937,21.0937 z m -23.8125,0.5625 q 0,-14.8125 -5.625,-22.2187 -5.5312,-7.5 -16.4062,-7.5 -6,0 -10.2188,2.3437 -4.2187,2.3438 -6.9375,6.4688 -2.7187,4.0312 -4.0312,9.4687 -1.2188,5.4375 -1.2188,11.625 0,14.9063 6,22.5 6,7.5 16.4063,7.5 5.7187,0 9.9375,-2.25 4.2187,-2.3437 6.8437,-6.375 2.625,-4.125 3.9375,-9.6562 1.3125,-5.5313 1.3125,-11.9063 z"
           id="path179987" />
        <path
           d="m 2187.6152,1190.8535 -0.5625,-14.0625 q -3,3.6563 -6.1875,6.6563 -3.1875,3 -6.8437,5.1562 -3.6563,2.0625 -7.875,3.1875 -4.125,1.2188 -9.1875,1.2188 -8.4375,0 -15,-3.375 -6.5625,-3.375 -11.0625,-9.5625 -4.4063,-6.2813 -6.75,-15.1875 -2.3438,-8.9063 -2.3438,-19.875 0,-13.125 3.6563,-22.6875 3.75,-9.6563 10.3125,-15.9375 6.5625,-6.375 15.5625,-9.375 9,-3.0938 19.5937,-3.0938 3.5625,0 7.125,0.4688 3.6563,0.4687 6.4688,1.2187 v -37.2187 h 22.875 v 132.4687 z m -41.8125,-46.875 q 0,7.875 1.0313,13.5 1.125,5.5313 3.1875,9.0938 2.1562,3.5625 5.25,5.25 3.0937,1.5937 7.0312,1.5937 5.8125,0 11.0625,-4.6875 5.25,-4.6875 11.1563,-12.8437 v -41.625 q -2.7188,-1.0313 -6.75,-1.6875 -3.9375,-0.6563 -7.9688,-0.6563 -5.5312,0 -9.9375,2.25 -4.4062,2.25 -7.5937,6.375 -3.0938,4.125 -4.7813,10.125 -1.6875,5.9063 -1.6875,13.3125 z"
           id="path179989" />
        <path
           d="m 2316.2402,1135.916 q 0,2.3438 -0.1875,6.0938 -0.094,3.75 -0.375,7.0312 h -62.625 q 0,6.2813 1.875,11.0625 1.9688,4.7813 5.4375,8.0625 3.5625,3.1875 8.4375,4.875 4.9688,1.6875 10.9688,1.6875 6.9375,0 14.8125,-1.0312 7.9687,-1.125 16.5,-3.5625 v 18.1875 q -3.6563,1.0312 -7.9688,1.875 -4.3125,0.8437 -8.8125,1.5 -4.5,0.6562 -9.0937,0.9375 -4.5938,0.375 -8.9063,0.375 -10.875,0 -19.5,-3.0938 -8.625,-3.0937 -14.625,-9.0937 -6,-6.0938 -9.1875,-15 -3.1875,-8.9063 -3.1875,-20.625 0,-11.625 3.1875,-21.0938 3.1875,-9.5625 9,-16.3125 5.8125,-6.8437 14.0625,-10.5 8.3438,-3.75 18.5625,-3.75 10.125,0 17.9063,3.1875 7.7812,3.0938 13.0312,8.7188 5.25,5.625 7.9688,13.4062 2.7187,7.7813 2.7187,17.0625 z m -23.25,-3.2812 q 0.094,-5.625 -1.4062,-9.75 -1.5,-4.2188 -4.125,-6.9375 -2.5313,-2.7188 -6,-4.0313 -3.375,-1.3125 -7.3125,-1.3125 -8.625,0 -14.1563,5.8125 -5.5312,5.7188 -6.5625,16.2188 z"
           id="path179991" />
        <path
           d="m 2400.1465,1132.6348 q 0.1875,-5.3438 -0.5625,-9.0938 -0.6563,-3.75 -2.25,-6.1875 -1.5,-2.4375 -3.75,-3.5625 -2.25,-1.125 -5.1563,-1.125 -5.0625,0 -10.5,4.2188 -5.3437,4.125 -11.8125,13.6875 v 60.2812 h -23.4375 v -95.25 h 20.7188 l 0.8437,13.875 q 2.3438,-3.6562 5.25,-6.5625 3,-2.9062 6.5625,-4.9687 3.6563,-2.1563 8.0625,-3.2813 4.4063,-1.125 9.6563,-1.125 7.2187,0 12.75,2.5313 5.625,2.4375 9.375,7.3125 3.8437,4.875 5.625,12.2812 1.875,7.3125 1.5937,16.9688 z"
           id="path179993" />
        <path
           d="m 2443.459,1190.8535 v -122.5312 h 39.5625 q 20.9062,0 31.3125,7.3125 10.5,7.3125 10.5,22.125 0,4.5937 -1.125,9 -1.0313,4.3125 -3.2813,7.9687 -2.25,3.6563 -5.625,6.4688 -3.375,2.8125 -7.9687,4.4062 4.5937,0.75 8.7187,3 4.2188,2.1563 7.3125,5.7188 3.1875,3.4687 4.9688,8.25 1.875,4.7812 1.875,10.6875 0,18.75 -12.5625,28.2187 -12.5625,9.375 -36.2813,9.375 z m 57.375,-89.0625 q 0,-3.4687 -1.125,-6.2812 -1.125,-2.8125 -3.6563,-4.7813 -2.4375,-1.9687 -6.375,-3 -3.8437,-1.125 -9.375,-1.125 h -13.9687 v 32.4375 h 13.9687 q 5.625,0 9.4688,-1.3125 3.9375,-1.4062 6.375,-3.75 2.5312,-2.4375 3.5625,-5.5312 1.125,-3.0938 1.125,-6.6563 z m -18.375,70.2188 q 5.5312,0 9.6562,-1.4063 4.2188,-1.4062 7.0313,-3.8437 2.8125,-2.5313 4.2187,-5.9063 1.5,-3.375 1.5,-7.2187 0,-7.9688 -6,-12.4688 -5.9062,-4.5 -18.1875,-4.5 h -14.3437 v 35.3438 z"
           id="path179995" />
        <path
           d="m 2580.709,1076.1973 h -26.9063 v -17.8125 h 50.3438 v 114.6562 h 27.4687 v 17.8125 h -81.0937 v -17.8125 h 30.1875 z"
           id="path179997" />
        <path
           d="m 2741.3027,1142.4785 q 0,11.25 -3.1875,20.625 -3.1875,9.2813 -9.1875,15.9375 -6,6.6563 -14.7187,10.3125 -8.7188,3.6563 -19.875,3.6563 -10.5938,0 -18.9375,-3.0938 -8.3438,-3.0937 -14.1563,-9.1875 -5.8125,-6.1875 -8.9062,-15.375 -3.0938,-9.2812 -3.0938,-21.5625 0,-11.3437 3.1875,-20.625 3.2813,-9.2812 9.2813,-15.8437 6.0937,-6.5625 14.8125,-10.125 8.7187,-3.6563 19.6875,-3.6563 10.6875,0 19.0312,3.1875 8.3438,3.0938 14.1563,9.2813 5.8125,6.1875 8.8125,15.375 3.0937,9.0937 3.0937,21.0937 z m -23.8125,0.5625 q 0,-14.8125 -5.625,-22.2187 -5.5312,-7.5 -16.4062,-7.5 -6,0 -10.2188,2.3437 -4.2187,2.3438 -6.9375,6.4688 -2.7187,4.0312 -4.0312,9.4687 -1.2188,5.4375 -1.2188,11.625 0,14.9063 6,22.5 6,7.5 16.4063,7.5 5.7187,0 9.9375,-2.25 4.2187,-2.3437 6.8437,-6.375 2.625,-4.125 3.9375,-9.6562 1.3125,-5.5313 1.3125,-11.9063 z"
           id="path179999" />
        <path
           d="m 2838.1465,1187.1973 q -6.75,2.7187 -13.9688,4.0312 -7.2187,1.3125 -15.0937,1.3125 -11.3438,0 -20.3438,-3.0937 -9,-3.0938 -15.2812,-9.1875 -6.2813,-6.0938 -9.6563,-15.0938 -3.2812,-9 -3.2812,-20.8125 0,-11.4375 3.5625,-20.7187 3.6562,-9.2813 10.2187,-15.8438 6.5625,-6.5625 15.75,-10.125 9.2813,-3.5625 20.625,-3.5625 9.2813,0 15.5625,1.0313 6.375,0.9375 11.4375,2.4375 v 22.2187 q -5.8125,-2.9062 -12.6562,-4.5 -6.75,-1.5937 -12.8438,-1.5937 -6.375,0 -11.4375,2.1562 -5.0625,2.1563 -8.5312,6 -3.4688,3.8438 -5.3438,9.375 -1.7812,5.4375 -1.7812,12 0,6.8438 1.9687,12.2813 1.9688,5.4375 5.5313,9.2812 3.6562,3.75 8.7187,5.8125 5.0625,1.9688 11.25,1.9688 3,0 6.2813,-0.375 3.375,-0.4688 6.6562,-1.2188 3.375,-0.8437 6.5625,-1.875 3.2813,-1.0312 6.0938,-2.25 z"
           id="path180001" />
        <path
           d="m 2925.6152,1190.8535 -35.1562,-47.625 v 47.625 h -22.875 v -132.4687 h 22.875 v 77.5312 l 33.2812,-40.3125 h 28.5938 l -38.625,43.4063 41.8125,51.8437 z"
           id="path180003" />
      </g>
    </g>
  </g>
</svg>
